name Walk8.mot
datacolumns 19
datarows 20
range 1.46600000 1.48500000
endheader

                time	   L_ground_force_vx	   L_ground_force_vy	   L_ground_force_vz	   L_ground_force_px	   L_ground_force_py	   L_ground_force_pz	   R_ground_force_vx	   R_ground_force_vy	   R_ground_force_vz	   R_ground_force_px	   R_ground_force_py	   R_ground_force_pz	   L_ground_torque_x	   L_ground_torque_y	   L_ground_torque_z	   R_ground_torque_x	   R_ground_torque_y	   R_ground_torque_z	
          1.46600000	         -0.04420713	          0.56448154	         -0.06726790	          0.00055720	          0.00000000	          0.00032695	         22.80405144	        691.77686211	        -20.02767653	         -0.12594170	          0.00000000	          0.33180841	          0.00000000	         -0.00039766	          0.00000000	          0.00000000	          0.85800853	          0.00000000	
          1.46700000	         -0.04809242	          0.57149889	         -0.06748152	          0.00055681	          0.00000000	          0.00032606	         23.13523166	        693.49708109	        -20.26262501	         -0.12541291	          0.00000000	          0.33184486	          0.00000000	         -0.00040420	          0.00000000	          0.00000000	          0.82822635	          0.00000000	
          1.46800000	         -0.05214013	          0.57680808	         -0.06743629	          0.00055409	          0.00000000	          0.00032374	         23.47363714	        695.20473901	        -20.49128118	         -0.12488513	          0.00000000	          0.33187810	          0.00000000	         -0.00040967	          0.00000000	          0.00000000	          0.79907026	          0.00000000	
          1.46900000	         -0.05634864	          0.58022847	         -0.06710836	          0.00054882	          0.00000000	          0.00031986	         23.81959478	        696.90017974	        -20.71336307	         -0.12435858	          0.00000000	          0.33190812	          0.00000000	         -0.00041395	          0.00000000	          0.00000000	          0.77057340	          0.00000000	
          1.47000000	         -0.06071551	          0.58157040	         -0.06647280	          0.00054080	          0.00000000	          0.00031431	         24.17342103	        698.58373790	        -20.92860777	         -0.12383352	          0.00000000	          0.33193489	          0.00000000	         -0.00041693	          0.00000000	          0.00000000	          0.74276623	          0.00000000	
          1.47100000	         -0.06523742	          0.58063520	         -0.06550366	          0.00052979	          0.00000000	          0.00030694	         24.53542201	        700.25573623	        -21.13677178	         -0.12331016	          0.00000000	          0.33195843	          0.00000000	         -0.00041846	          0.00000000	          0.00000000	          0.71567646	          0.00000000	
          1.47200000	         -0.06991011	          0.57721513	         -0.06417394	          0.00051558	          0.00000000	          0.00029761	         24.90589356	        701.91648301	        -21.33763121	         -0.12278873	          0.00000000	          0.33197872	          0.00000000	         -0.00041840	          0.00000000	          0.00000000	          0.68932919	          0.00000000	
          1.47300000	         -0.07472828	          0.57109340	         -0.06245561	          0.00049792	          0.00000000	          0.00028620	         25.28512148	        703.56626982	        -21.53098180	         -0.12226944	          0.00000000	          0.33199578	          0.00000000	         -0.00041661	          0.00000000	          0.00000000	          0.66374701	          0.00000000	
          1.47400000	         -0.07968557	          0.56204425	         -0.06031968	          0.00047655	          0.00000000	          0.00027254	         25.67338166	        705.20537007	        -21.71663876	         -0.12175252	          0.00000000	          0.33200959	          0.00000000	         -0.00041294	          0.00000000	          0.00000000	          0.63895019	          0.00000000	
          1.47500000	         -0.08477441	          0.54983301	         -0.05773615	          0.00045124	          0.00000000	          0.00025648	         26.07094015	        706.83403782	        -21.89443670	         -0.12123816	          0.00000000	          0.33202020	          0.00000000	         -0.00040721	          0.00000000	          0.00000000	          0.61495681	          0.00000000	
          1.47600000	         -0.08998602	          0.53421628	         -0.05467410	          0.00042171	          0.00000000	          0.00023787	         26.47805318	        708.45250698	        -22.06422942	         -0.12072656	          0.00000000	          0.33202762	          0.00000000	         -0.00039928	          0.00000000	          0.00000000	          0.59178259	          0.00000000	
          1.47700000	         -0.09531029	          0.51494210	         -0.05110171	          0.00038769	          0.00000000	          0.00021655	         26.89496714	        710.06099112	        -22.22588972	         -0.12021791	          0.00000000	          0.33203190	          0.00000000	         -0.00038895	          0.00000000	          0.00000000	          0.56944063	          0.00000000	
          1.47800000	         -0.10073570	          0.49175020	         -0.04698631	          0.00034891	          0.00000000	          0.00019236	         27.32191857	        711.65968430	        -22.37930916	         -0.11971240	          0.00000000	          0.33203308	          0.00000000	         -0.00037607	          0.00000000	          0.00000000	          0.54794098	          0.00000000	
          1.47900000	         -0.10624923	          0.46437231	         -0.04229444	          0.00030509	          0.00000000	          0.00016512	         27.75913408	        713.24876286	        -22.52439756	         -0.11921020	          0.00000000	          0.33203121	          0.00000000	         -0.00036043	          0.00000000	          0.00000000	          0.52729016	          0.00000000	
          1.48000000	         -0.11183631	          0.43253251	         -0.03699190	          0.00025594	          0.00000000	          0.00013467	         28.20683021	        714.82838744	        -22.66108248	         -0.11871151	          0.00000000	          0.33202636	          0.00000000	         -0.00034184	          0.00000000	          0.00000000	          0.50749089	          0.00000000	
          1.48100000	         -0.11748069	          0.39594768	         -0.03104385	          0.00020116	          0.00000000	          0.00010084	         28.66521293	        716.39870445	        -22.78930851	         -0.11821649	          0.00000000	          0.33201858	          0.00000000	         -0.00032012	          0.00000000	          0.00000000	          0.48854204	          0.00000000	
          1.48200000	         -0.12316439	          0.35432797	         -0.02441487	          0.00014046	          0.00000000	          0.00006344	         29.13447693	        717.95984627	        -22.90903646	         -0.11772534	          0.00000000	          0.33200792	          0.00000000	         -0.00029506	          0.00000000	          0.00000000	          0.47043891	          0.00000000	
          1.48300000	         -0.12886760	          0.30737740	         -0.01706906	          0.00007353	          0.00000000	          0.00002231	         29.61480465	        719.51193026	        -23.02024252	         -0.11723823	          0.00000000	          0.33199443	          0.00000000	         -0.00026646	          0.00000000	          0.00000000	          0.45317379	          0.00000000	
          1.48400000	         -0.13456856	          0.25479452	         -0.00897015	          0.00000009	          0.00000000	         -0.00002274	         30.10636530	        721.05505668	        -23.12291752	         -0.11675534	          0.00000000	          0.33197815	          0.00000000	         -0.00023409	          0.00000000	          0.00000000	          0.43673659	          0.00000000	
          1.48500000	         -0.14024353	          0.19627309	         -0.00008160	         -0.00008018	          0.00000000	         -0.00007188	         30.60931404	        722.58930659	        -23.21706624	         -0.11627686	          0.00000000	          0.33195911	          0.00000000	         -0.00019775	          0.00000000	          0.00000000	          0.42111550	          0.00000000	
